<mxfile host="app.diagrams.net" agent="Mozilla/5.0 (Windows NT 10.0; Win64; x64; rv:133.0) Gecko/20100101 Firefox/133.0" version="26.0.1">
  <diagram name="Page-1" id="v6iNQaGJOy4wuMgn7o_k">
    <mxGraphModel dx="1516" dy="576" grid="1" gridSize="10" guides="1" tooltips="1" connect="1" arrows="1" fold="1" page="1" pageScale="1" pageWidth="850" pageHeight="1100" math="0" shadow="0">
      <root>
        <mxCell id="0" />
        <mxCell id="1" parent="0" />
        <mxCell id="mUWfGEvBt_twPXdqDG-4-1" value="" style="fillColor=#fff2cc;rounded=0;strokeColor=#d6b656;" vertex="1" parent="1">
          <mxGeometry x="-80" y="280" width="850" height="30" as="geometry" />
        </mxCell>
        <mxCell id="mUWfGEvBt_twPXdqDG-4-2" value="Year 570" style="shape=mxgraph.infographic.ribbonSimple;notch1=0;notch2=10;notch=0;html=1;fillColor=#10739E;strokeColor=none;shadow=0;fontSize=17;fontColor=#FFFFFF;align=left;spacingLeft=10;fontStyle=1;whiteSpace=wrap;" vertex="1" parent="1">
          <mxGeometry x="-86" y="270" width="130" height="50" as="geometry" />
        </mxCell>
        <mxCell id="mUWfGEvBt_twPXdqDG-4-3" value="Year 610" style="shape=mxgraph.infographic.ribbonSimple;notch1=0;notch2=10;notch=0;html=1;fillColor=#F2931E;strokeColor=none;shadow=0;fontSize=17;fontColor=#FFFFFF;align=left;spacingLeft=10;fontStyle=1;whiteSpace=wrap;" vertex="1" parent="1">
          <mxGeometry x="80" y="271" width="150" height="50" as="geometry" />
        </mxCell>
        <mxCell id="mUWfGEvBt_twPXdqDG-4-4" value="Year 613" style="shape=mxgraph.infographic.ribbonSimple;notch1=0;notch2=10;notch=0;html=1;fillColor=#AE4132;strokeColor=none;shadow=0;fontSize=17;fontColor=#FFFFFF;align=left;spacingLeft=10;fontStyle=1;whiteSpace=wrap;" vertex="1" parent="1">
          <mxGeometry x="250" y="270" width="150" height="50" as="geometry" />
        </mxCell>
        <mxCell id="mUWfGEvBt_twPXdqDG-4-5" value="Year 622" style="shape=mxgraph.infographic.ribbonSimple;notch1=0;notch2=10;notch=0;html=1;fillColor=#008a00;strokeColor=#005700;shadow=0;fontSize=17;align=left;spacingLeft=10;fontStyle=1;whiteSpace=wrap;fontColor=#ffffff;" vertex="1" parent="1">
          <mxGeometry x="440" y="270" width="140" height="50" as="geometry" />
        </mxCell>
        <mxCell id="mUWfGEvBt_twPXdqDG-4-6" value="Year 632" style="shape=mxgraph.infographic.ribbonSimple;notch1=0;notch2=10;notch=0;html=1;fillColor=#12AAB5;strokeColor=none;shadow=0;fontSize=17;fontColor=#FFFFFF;align=left;spacingLeft=10;fontStyle=1;whiteSpace=wrap;" vertex="1" parent="1">
          <mxGeometry x="639" y="270" width="141" height="50" as="geometry" />
        </mxCell>
        <mxCell id="mUWfGEvBt_twPXdqDG-4-7" value="&lt;b&gt;&lt;font style=&quot;color: rgb(255, 255, 255); font-size: 14px;&quot;&gt;Prophet Muhammad was born in Mecca.&lt;/font&gt;&lt;/b&gt;" style="rounded=1;strokeColor=none;fillColor=#10739E;align=center;arcSize=12;verticalAlign=top;whiteSpace=wrap;html=1;fontSize=12;" vertex="1" parent="1">
          <mxGeometry x="-85" y="190" width="130" height="70" as="geometry" />
        </mxCell>
        <mxCell id="mUWfGEvBt_twPXdqDG-4-8" value="&lt;font style=&quot;font-size: 14px; color: rgb(255, 255, 255);&quot;&gt;Prophet Muhammad Receives First Revelation in Mecca.&lt;/font&gt;" style="rounded=1;strokeColor=none;fillColor=#F2931E;align=center;arcSize=12;verticalAlign=top;whiteSpace=wrap;html=1;fontSize=12;" vertex="1" parent="1">
          <mxGeometry x="84" y="330" width="144" height="60" as="geometry" />
        </mxCell>
        <mxCell id="mUWfGEvBt_twPXdqDG-4-9" value="&lt;font style=&quot;color: rgb(255, 255, 255); font-size: 14px;&quot;&gt;Prophet Muhammad Takes his Message Public.&lt;/font&gt;" style="rounded=1;strokeColor=none;fillColor=#AE4132;align=center;arcSize=12;verticalAlign=top;whiteSpace=wrap;html=1;fontSize=12;" vertex="1" parent="1">
          <mxGeometry x="250" y="330" width="150" height="60" as="geometry" />
        </mxCell>
        <mxCell id="mUWfGEvBt_twPXdqDG-4-10" value="&lt;font style=&quot;font-size: 14px;&quot;&gt;Prophet Muhammad and the Muslims Emigrate to Medina.&lt;/font&gt;" style="rounded=1;strokeColor=#005700;fillColor=#008a00;align=center;arcSize=12;verticalAlign=top;whiteSpace=wrap;html=1;fontSize=12;fontColor=#ffffff;" vertex="1" parent="1">
          <mxGeometry x="440" y="190" width="140" height="70" as="geometry" />
        </mxCell>
        <mxCell id="mUWfGEvBt_twPXdqDG-4-11" value="&lt;b&gt;&lt;font style=&quot;font-size: 14px; color: rgb(255, 255, 255);&quot;&gt;Prophet Muhammad died in Medina.&lt;/font&gt;&lt;/b&gt;" style="rounded=1;strokeColor=none;fillColor=#12AAB5;align=center;arcSize=12;verticalAlign=top;whiteSpace=wrap;html=1;fontSize=12;" vertex="1" parent="1">
          <mxGeometry x="643" y="190" width="130" height="70" as="geometry" />
        </mxCell>
        <mxCell id="mUWfGEvBt_twPXdqDG-4-29" value="" style="shape=flexArrow;endArrow=classic;html=1;rounded=0;startArrow=block;fillColor=#F2931E;strokeColor=#F2931E;" edge="1" parent="1">
          <mxGeometry width="50" height="50" relative="1" as="geometry">
            <mxPoint x="80" y="430" as="sourcePoint" />
            <mxPoint x="440" y="430" as="targetPoint" />
          </mxGeometry>
        </mxCell>
        <mxCell id="mUWfGEvBt_twPXdqDG-4-30" value="" style="shape=flexArrow;endArrow=classic;html=1;rounded=0;startArrow=block;fillColor=#dae8fc;strokeColor=#6c8ebf;" edge="1" parent="1">
          <mxGeometry width="50" height="50" relative="1" as="geometry">
            <mxPoint x="440" y="430" as="sourcePoint" />
            <mxPoint x="780" y="430" as="targetPoint" />
          </mxGeometry>
        </mxCell>
        <mxCell id="mUWfGEvBt_twPXdqDG-4-32" value="" style="endArrow=none;dashed=1;html=1;dashPattern=1 3;strokeWidth=2;rounded=0;strokeColor=#FF9999;" edge="1" parent="1">
          <mxGeometry width="50" height="50" relative="1" as="geometry">
            <mxPoint x="440" y="421" as="sourcePoint" />
            <mxPoint x="440" y="321" as="targetPoint" />
          </mxGeometry>
        </mxCell>
        <mxCell id="mUWfGEvBt_twPXdqDG-4-33" value="" style="endArrow=none;dashed=1;html=1;dashPattern=1 3;strokeWidth=2;rounded=0;strokeColor=#FF9999;" edge="1" parent="1">
          <mxGeometry width="50" height="50" relative="1" as="geometry">
            <mxPoint x="82" y="423" as="sourcePoint" />
            <mxPoint x="82" y="323" as="targetPoint" />
          </mxGeometry>
        </mxCell>
        <mxCell id="mUWfGEvBt_twPXdqDG-4-34" value="" style="endArrow=none;dashed=1;html=1;dashPattern=1 3;strokeWidth=2;rounded=0;strokeColor=#FF9999;" edge="1" parent="1">
          <mxGeometry width="50" height="50" relative="1" as="geometry">
            <mxPoint x="774" y="420" as="sourcePoint" />
            <mxPoint x="774" y="320" as="targetPoint" />
          </mxGeometry>
        </mxCell>
        <mxCell id="mUWfGEvBt_twPXdqDG-4-35" value="&lt;font style=&quot;font-size: 14px; color: rgb(255, 153, 153);&quot;&gt;The Makkan Period: Approximately 12-13 years&lt;/font&gt;" style="text;html=1;align=center;verticalAlign=middle;whiteSpace=wrap;rounded=0;" vertex="1" parent="1">
          <mxGeometry x="103" y="398" width="307" height="30" as="geometry" />
        </mxCell>
        <mxCell id="mUWfGEvBt_twPXdqDG-4-38" value="&lt;font style=&quot;font-size: 14px; color: rgb(255, 153, 153);&quot;&gt;The Madinan Period: 10 years&lt;/font&gt;" style="text;html=1;align=center;verticalAlign=middle;whiteSpace=wrap;rounded=0;" vertex="1" parent="1">
          <mxGeometry x="510" y="398" width="230" height="30" as="geometry" />
        </mxCell>
        <mxCell id="mUWfGEvBt_twPXdqDG-4-39" value="" style="endArrow=none;dashed=1;html=1;dashPattern=1 3;strokeWidth=2;rounded=0;strokeColor=#FF9999;" edge="1" parent="1">
          <mxGeometry width="50" height="50" relative="1" as="geometry">
            <mxPoint x="-84" y="428" as="sourcePoint" />
            <mxPoint x="-84" y="328" as="targetPoint" />
          </mxGeometry>
        </mxCell>
        <mxCell id="mUWfGEvBt_twPXdqDG-4-41" value="" style="shape=flexArrow;endArrow=classic;html=1;rounded=0;startArrow=block;fillColor=#10739E;strokeColor=#3700CC;" edge="1" parent="1">
          <mxGeometry width="50" height="50" relative="1" as="geometry">
            <mxPoint x="-88" y="428" as="sourcePoint" />
            <mxPoint x="82" y="428" as="targetPoint" />
          </mxGeometry>
        </mxCell>
        <mxCell id="mUWfGEvBt_twPXdqDG-4-42" value="&lt;span style=&quot;color: rgb(255, 153, 153);&quot;&gt;40 years&lt;/span&gt;" style="text;html=1;align=center;verticalAlign=middle;whiteSpace=wrap;rounded=0;" vertex="1" parent="1">
          <mxGeometry x="-76" y="398" width="147" height="30" as="geometry" />
        </mxCell>
      </root>
    </mxGraphModel>
  </diagram>
</mxfile>
